<svg role="image" viewBox="0 0 24 24" xmlns="http://www.w3.org/2000/svg">
  <g transform="matrix(0.17142858,0,0,0.17142858,-18,0.78929817)" fill="#bf1922">
    <g transform="matrix(1.560758,0,0,1.560758,97.040132,-13.890749)">
      <path d="m 89.2,64.3 c -2.4,0 -4.4,1.5 -5.2,3.5 L 58,62.6 c 0,-0.2 0,-0.3 0,-0.5 0,-0.7 -0.1,-1.4 -0.3,-2.1 l 14,-6.1 c 1.4,2.3 3.9,3.9 6.8,3.9 4.4,0 8,-3.6 8,-8 0,-3.2 -1.9,-6 -4.7,-7.2 l 1.9,-6.5 c 0.2,0 0.4,0.1 0.6,0.1 1,0 2,-0.4 2.7,-1.1 1.6,-1.5 1.7,-4 0.2,-5.6 -0.7,-0.8 -1.8,-1.2 -2.9,-1.2 -1,0 -2,0.4 -2.7,1.1 -0.8,0.7 -1.2,1.7 -1.2,2.8 0,1.1 0.3,2.1 1.1,2.8 0.4,0.4 0.8,0.7 1.3,0.9 L 81,42.3 c -0.8,-0.2 -1.6,-0.4 -2.4,-0.4 -2.2,0 -4.2,0.9 -5.6,2.3 l -2,-2 c 1.7,-2.1 1.7,-5.2 -0.2,-7.2 -1,-1.1 -2.5,-1.7 -4,-1.7 -1.4,0 -2.7,0.5 -3.7,1.5 -0.6,0.6 -1.1,1.3 -1.4,2.1 l -8.4,-1.4 1.1,-15.8 c 2.7,-0.3 4.8,-2.6 4.8,-5.4 0,-3 -2.4,-5.4 -5.4,-5.4 -3,0 -5.4,2.4 -5.4,5.4 0,2.5 1.7,4.7 4.1,5.3 L 51.4,35.2 38,32.8 c -0.1,-0.9 -0.4,-1.7 -1,-2.4 -0.7,-0.8 -1.8,-1.2 -2.9,-1.2 -0.8,0 -1.6,0.3 -2.3,0.7 l -6.6,-7.2 c 0.6,-0.7 1,-1.6 1,-2.5 0,-2.2 -1.8,-4 -4,-4 -2.2,0 -4,1.8 -4,4 0,2.2 1.8,4 4,4 0.9,0 1.6,-0.3 2.3,-0.7 l 6.6,7.2 c -1.2,1.5 -1.3,3.6 0,5.1 L 25,45.6 C 24.1,45.2 23.1,45 22.1,45 c -1.8,0 -3.6,0.7 -4.9,1.9 -0.3,0.3 -0.6,0.6 -0.8,0.9 l -3.7,-2.4 c 0.3,-0.5 0.4,-1.1 0.4,-1.7 0,-2.2 -1.8,-4 -4,-4 -2.2,0 -4,1.8 -4,4 0,2.2 1.8,4 4,4 1.2,0 2.3,-0.6 3,-1.4 l 3.7,2.4 c -1.5,2.6 -1.1,6.1 1,8.4 0.3,0.3 0.5,0.5 0.8,0.7 l -3.2,4.5 c -0.7,-0.3 -1.5,-0.5 -2.3,-0.5 -3,0 -5.5,2.4 -5.5,5.5 0,3.1 2.4,5.5 5.5,5.5 3.1,0 5.5,-2.4 5.5,-5.5 0,-1.4 -0.6,-2.8 -1.5,-3.7 L 19.5,59 c 0.8,0.3 1.7,0.5 2.7,0.5 1.2,0 2.4,-0.3 3.4,-0.9 L 33.1,70 c -0.9,0.7 -1.4,1.8 -1.4,3 0,2.2 1.8,4 4,4 2.2,0 4,-1.8 4,-4 0,-2.2 -1.8,-4 -4,-4 -0.6,0 -1.2,0.2 -1.7,0.4 L 26.5,57.8 c 0.2,-0.2 0.4,-0.3 0.6,-0.5 2.9,-2.7 3,-7.2 0.3,-10.1 C 27.2,47 27,46.8 26.7,46.6 l 6,-9.8 c 0.4,0.2 0.9,0.3 1.3,0.3 1,0 2,-0.4 2.7,-1.1 0.4,-0.4 0.7,-0.8 0.9,-1.2 L 51,37.1 50,54.5 c -1.6,0.1 -3,0.7 -4.2,1.6 L 43.9,54 c 0.6,-0.7 1,-1.6 1,-2.6 0,-2.2 -1.8,-4 -4,-4 -2.2,0 -4,1.8 -4,4 0,2.2 1.8,4 4,4 0.8,0 1.6,-0.3 2.3,-0.7 l 1.9,2.1 C 43.8,58.2 43,60 43,62.1 c 0,4.1 3.2,7.4 7.2,7.6 l 0.3,12.2 c -2.7,0.3 -4.8,2.6 -4.8,5.4 0,3 2.4,5.4 5.4,5.4 3,0 5.4,-2.4 5.4,-5.4 0,-2.9 -2.2,-5.2 -5.1,-5.4 L 51.1,69.7 c 3,-0.3 5.5,-2.3 6.5,-5.1 l 26,5.2 c 0,0 0,0.1 0,0.1 0,3.1 2.5,5.6 5.6,5.6 3.1,0 5.6,-2.5 5.6,-5.6 0,-3.1 -2.6,-5.6 -5.6,-5.6 z M 83,30.7 c 0.4,-0.3 0.8,-0.5 1.3,-0.5 0.5,0 1.1,0.2 1.4,0.6 0.7,0.8 0.7,2 -0.1,2.8 -0.8,0.7 -2.1,0.7 -2.8,-0.1 -0.4,-0.4 -0.5,-0.9 -0.5,-1.4 0,-0.5 0.3,-1.1 0.7,-1.4 z m -73.8,15 c -1.1,0 -2,-0.9 -2,-2 0,-1.1 0.9,-2 2,-2 1.1,0 2,0.9 2,2 0,1.1 -0.9,2 -2,2 z m 3,24.9 c -1.9,0 -3.5,-1.6 -3.5,-3.5 0,-1.9 1.6,-3.5 3.5,-3.5 1.9,0 3.5,1.6 3.5,3.5 0,1.9 -1.6,3.5 -3.5,3.5 z m 25.4,2.5 c 0,1.1 -0.9,2 -2,2 -1.1,0 -2,-0.9 -2,-2 0,-1.1 0.9,-2 2,-2 1.1,0 2,0.9 2,2 z M 25.7,55.9 c -1,0.9 -2.2,1.4 -3.5,1.4 -1.4,0 -2.8,-0.6 -3.8,-1.6 -1.9,-2.1 -1.8,-5.3 0.2,-7.3 1,-0.9 2.2,-1.4 3.5,-1.4 1.4,0 2.8,0.6 3.8,1.6 2,2.1 1.9,5.4 -0.2,7.3 z M 22.2,22.1 c -1.1,0 -2,-0.9 -2,-2 0,-1.1 0.9,-2 2,-2 1.1,0 2,0.9 2,2 -0.1,1.1 -0.9,2 -2,2 z m 13.3,12.5 c -0.8,0.7 -2.1,0.7 -2.8,-0.1 -0.7,-0.8 -0.7,-2 0.1,-2.8 0.4,-0.3 0.8,-0.5 1.3,-0.5 0.5,0 1.1,0.2 1.4,0.6 0.8,0.8 0.7,2 0,2.8 z m 43,9.2 c 3.3,0 6,2.7 6,6 0,3.3 -2.7,6 -6,6 -3.3,0 -6,-2.7 -6,-6 0,-3.3 2.7,-6 6,-6 z M 64.4,36.2 c 0.6,-0.6 1.5,-0.9 2.4,-0.9 1,0 1.9,0.4 2.5,1.1 1.3,1.4 1.2,3.6 -0.2,4.9 -0.6,0.6 -1.5,0.9 -2.4,0.9 -1,0 -1.9,-0.4 -2.5,-1.1 -1.3,-1.5 -1.2,-3.6 0.2,-4.9 z m -3.1,2.6 c 0,1.3 0.5,2.6 1.5,3.6 1,1.1 2.5,1.7 4,1.7 1.3,0 2.5,-0.5 3.5,-1.3 l 2,2 c -1,1.3 -1.7,3 -1.7,4.9 0,0.8 0.1,1.5 0.3,2.3 l -14,6.1 C 55.8,56.3 54,55 51.9,54.6 L 53.1,37.3 Z M 50.2,14.1 c 0,-1.9 1.5,-3.4 3.4,-3.4 1.9,0 3.4,1.5 3.4,3.4 0,1.9 -1.5,3.4 -3.4,3.4 -1.9,0 -3.4,-1.5 -3.4,-3.4 z m -9.3,39.3 c -1.1,0 -2,-0.9 -2,-2 0,-1.1 0.9,-2 2,-2 1.1,0 2,0.9 2,2 0,1.1 -0.9,2 -2,2 z m 13.6,33.9 c 0,1.9 -1.5,3.4 -3.4,3.4 -1.9,0 -3.4,-1.5 -3.4,-3.4 0,-1.9 1.5,-3.4 3.4,-3.4 1.9,0 3.4,1.5 3.4,3.4 z m -4,-19.7 c -3.1,0 -5.6,-2.5 -5.6,-5.6 0,-3.1 2.5,-5.6 5.6,-5.6 3.1,0 5.5,2.6 5.5,5.7 0,3.1 -2.5,5.5 -5.5,5.5 z m 38.7,5.8 c -2,0 -3.6,-1.6 -3.6,-3.6 0,-2 1.6,-3.6 3.6,-3.6 2,0 3.6,1.6 3.6,3.6 0,2 -1.7,3.6 -3.6,3.6 z" id="path2" />
    </g>
  </g>
</svg>
